<?xml version="1.0" standalone="no"?>
<!DOCTYPE svg PUBLIC "-//W3C//DTD SVG 20010904//EN"
 "http://www.w3.org/TR/2001/REC-SVG-20010904/DTD/svg10.dtd">
<svg version="1.0" xmlns="http://www.w3.org/2000/svg"
 width="1600.000000pt" height="1200.000000pt" viewBox="0 0 1600.000000 1200.000000"
 preserveAspectRatio="xMidYMid meet">

<g transform="translate(0.000000,1200.000000) scale(0.100000,-0.100000)"
fill="#000000" stroke="none">
<path d="M5610 9935 c-182 -41 -358 -179 -438 -345 -43 -88 -72 -204 -72 -285
0 -81 29 -197 72 -285 82 -169 255 -303 444 -346 149 -33 325 -3 462 78 31 18
89 66 129 106 294 294 224 793 -142 1008 -121 71 -316 100 -455 69z"/>
<path d="M4630 8722 c80 -62 203 -175 328 -302 556 -560 943 -1252 1152 -2055
59 -226 120 -524 120 -589 0 -16 3 -27 6 -24 3 3 -3 120 -13 260 -24 346 -24
971 0 1218 47 494 154 886 327 1208 l39 72 -81 -66 c-255 -208 -562 -251 -975
-139 -239 65 -593 231 -856 401 -76 50 -100 58 -47 16z"/>
<path d="M6242 5715 c0 -16 2 -22 5 -12 2 9 2 23 0 30 -3 6 -5 -1 -5 -18z"/>
<path d="M8691 2358 c-5 -13 -57 -151 -116 -308 -116 -310 -127 -333 -162
-349 -12 -6 -23 -17 -23 -26 0 -13 19 -15 115 -15 96 0 115 2 115 15 0 9 -11
20 -24 25 -33 12 -39 48 -18 116 l18 59 111 3 112 3 11 -42 c6 -23 12 -60 13
-83 2 -34 -2 -43 -20 -51 -13 -5 -23 -18 -23 -27 0 -16 13 -18 145 -18 121 0
145 2 145 15 0 8 -10 20 -22 26 -37 19 -37 19 -133 349 -32 107 -66 225 -77
263 l-20 67 -69 0 c-63 0 -70 -2 -78 -22z m109 -410 c0 -5 -40 -8 -90 -8 -49
0 -90 2 -90 4 0 4 71 202 92 256 9 22 15 7 49 -110 21 -74 39 -138 39 -142z"/>
<path d="M10252 2361 c-158 -55 -190 -226 -62 -338 14 -12 56 -39 93 -60 92
-50 127 -91 127 -146 0 -53 -20 -82 -66 -97 -70 -24 -144 15 -162 84 -7 27
-13 31 -45 34 l-37 3 0 -85 0 -85 38 -8 c20 -4 91 -8 157 -8 105 0 125 3 161
22 121 65 151 218 62 318 -16 19 -72 60 -124 90 -105 62 -124 83 -124 138 0
52 13 73 54 87 69 23 137 -11 155 -76 6 -24 13 -29 44 -32 l37 -3 0 80 0 79
-50 11 c-78 17 -197 13 -258 -8z"/>
<path d="M10864 2362 c-61 -21 -97 -49 -137 -103 -98 -134 -84 -436 25 -535
58 -54 107 -69 218 -69 95 0 110 3 156 27 59 31 108 84 138 147 18 40 21 65
21 191 0 131 -2 150 -24 197 -31 69 -95 127 -162 147 -69 21 -171 20 -235 -2z
m161 -58 c73 -35 98 -120 93 -322 -3 -135 -5 -151 -28 -192 -34 -61 -86 -87
-140 -71 -45 13 -85 56 -100 109 -7 20 -14 93 -17 162 -8 183 22 286 92 316
40 18 60 17 100 -2z"/>
<path d="M11542 2361 c-63 -22 -98 -52 -123 -106 -49 -106 10 -219 153 -291
78 -40 105 -63 122 -105 32 -79 -10 -144 -93 -144 -61 0 -97 24 -123 81 -18
41 -22 45 -51 42 l-32 -3 -3 -82 -3 -82 48 -8 c26 -4 98 -8 158 -8 102 0 114
2 160 28 64 35 95 80 102 150 11 110 -27 167 -174 253 -106 63 -123 82 -123
139 0 59 33 88 99 89 57 1 93 -25 111 -80 10 -30 16 -34 46 -34 l34 0 0 79 0
79 -50 11 c-78 17 -197 13 -258 -8z"/>
<path d="M12565 2363 c-4 -10 -54 -144 -112 -298 -122 -324 -135 -352 -169
-365 -14 -6 -24 -16 -21 -23 2 -8 37 -13 115 -15 102 -2 112 -1 112 15 0 10
-10 23 -22 28 -30 13 -35 60 -13 125 l17 50 109 0 108 0 16 -55 c21 -70 17
-107 -12 -120 -13 -5 -23 -18 -23 -27 0 -16 13 -18 145 -18 158 0 168 4 115
49 -27 23 -38 53 -96 251 -36 124 -79 269 -95 323 l-30 97 -68 0 c-56 0 -70
-3 -76 -17z m69 -275 c20 -71 36 -132 36 -138 0 -6 -36 -10 -90 -10 l-90 0 44
123 c53 146 58 159 61 155 2 -2 19 -60 39 -130z"/>
<path d="M2470 2358 c0 -7 12 -22 28 -34 l27 -22 0 -287 0 -287 -27 -22 c-52
-41 -39 -46 112 -46 130 0 140 1 140 19 0 10 -9 21 -20 24 -31 8 -40 49 -40
178 0 102 2 119 16 119 24 0 62 -45 132 -157 63 -101 74 -136 47 -147 -8 -3
-15 -12 -15 -21 0 -13 21 -15 145 -15 138 0 145 1 145 20 0 11 -6 20 -13 20
-7 0 -25 12 -39 28 -31 33 -228 333 -228 347 0 20 210 245 235 251 16 4 25 13
25 25 0 18 -9 19 -135 19 -114 0 -135 -2 -135 -15 0 -9 11 -20 25 -25 50 -19
20 -90 -89 -207 -46 -50 -64 -63 -88 -63 l-30 0 4 121 c3 118 4 121 31 143 51
41 38 46 -113 46 -103 0 -140 -3 -140 -12z"/>
<path d="M3200 2358 c0 -7 12 -22 28 -34 l27 -22 3 -269 c3 -281 -2 -321 -38
-330 -11 -3 -20 -14 -20 -24 0 -18 12 -19 260 -19 l260 0 0 79 c0 44 3 86 6
95 5 13 -1 16 -32 16 -37 0 -40 -3 -58 -45 -28 -69 -55 -85 -142 -85 l-74 0 0
140 0 140 43 0 c50 0 82 -19 91 -55 5 -20 13 -25 37 -25 l30 0 -3 108 c-3 107
-3 107 -28 107 -18 0 -29 -9 -39 -30 -19 -40 -28 -45 -83 -45 l-48 0 0 125 0
125 69 0 c95 0 118 -11 142 -65 18 -41 23 -45 54 -45 l35 0 0 85 0 85 -260 0
c-197 0 -260 -3 -260 -12z"/>
<path d="M3820 2352 c0 -9 10 -22 23 -27 l22 -10 0 -300 0 -300 -22 -10 c-13
-5 -23 -18 -23 -27 0 -16 11 -18 100 -18 83 0 100 3 100 15 0 9 -11 21 -25 27
-14 6 -28 21 -30 32 -7 31 -11 496 -4 488 3 -4 40 -108 83 -232 42 -124 80
-232 85 -240 5 -10 23 -15 52 -15 l44 0 90 243 90 243 3 -233 c1 -128 0 -243
-3 -256 -3 -12 -17 -27 -30 -32 -14 -5 -25 -16 -25 -25 0 -13 21 -15 140 -15
119 0 140 2 140 15 0 9 -11 20 -24 24 -13 5 -26 17 -30 26 -9 23 -7 568 2 581
4 6 17 16 30 23 12 6 22 18 22 26 0 12 -22 15 -127 15 l-128 0 -74 -205 c-41
-113 -77 -205 -80 -205 -4 0 -26 60 -50 133 -24 72 -54 165 -68 205 l-26 72
-128 0 c-117 0 -129 -2 -129 -18z"/>
<path d="M4720 2355 c0 -9 11 -20 24 -26 13 -6 27 -21 30 -33 3 -11 6 -142 6
-289 l0 -269 -30 -28 c-16 -15 -30 -33 -30 -39 0 -8 78 -11 260 -11 l260 0 0
64 c0 35 3 78 6 95 6 31 6 31 -33 31 -38 0 -40 -2 -52 -39 -6 -22 -25 -51 -42
-65 -27 -23 -40 -26 -105 -26 l-74 0 0 140 0 140 49 0 c42 0 53 -4 70 -26 12
-15 21 -33 21 -40 0 -9 11 -14 30 -14 l30 0 0 110 0 110 -26 0 c-19 0 -28 -8
-39 -34 -17 -39 -30 -46 -91 -46 l-44 0 0 125 0 125 69 0 c95 0 118 -11 142
-65 18 -41 23 -45 54 -45 l35 0 0 85 0 85 -260 0 c-226 0 -260 -2 -260 -15z"/>
<path d="M5340 2352 c0 -9 10 -22 23 -27 l22 -10 0 -300 0 -300 -22 -10 c-13
-5 -23 -18 -23 -27 0 -16 11 -18 100 -18 66 0 100 4 100 11 0 6 -13 24 -30 39
l-30 28 0 223 0 223 151 -262 151 -262 69 0 69 0 0 318 c0 174 4 322 8 328 4
6 17 16 30 23 12 6 22 18 22 26 0 12 -19 15 -100 15 -93 0 -100 -1 -100 -20 0
-11 7 -20 15 -20 8 0 19 -8 24 -18 8 -14 21 -442 14 -442 -1 0 -14 24 -28 53
-14 28 -76 141 -138 249 l-112 198 -107 0 c-97 0 -108 -2 -108 -18z"/>
<path d="M6050 2280 l0 -90 40 0 c28 0 40 4 40 15 0 28 33 83 57 94 13 6 39
11 58 11 l35 0 0 -274 c0 -156 -4 -286 -10 -301 -5 -14 -21 -30 -35 -35 -14
-5 -25 -16 -25 -25 0 -13 22 -15 145 -15 136 0 145 1 145 19 0 11 -9 21 -24
25 -13 3 -26 16 -30 28 -3 13 -6 148 -6 302 l0 279 45 -6 c55 -6 82 -28 95
-79 10 -36 13 -38 50 -38 l40 0 0 90 0 90 -310 0 -310 0 0 -90z"/>
<path d="M6750 2352 c0 -9 10 -22 23 -27 l22 -10 0 -300 0 -300 -22 -10 c-13
-5 -23 -18 -23 -27 0 -17 18 -18 260 -18 l260 0 0 95 0 95 -34 0 c-30 0 -35
-4 -50 -45 -27 -68 -54 -85 -142 -85 l-74 0 0 140 0 140 43 0 c50 0 82 -19 91
-55 5 -20 13 -25 36 -25 l30 0 0 110 0 110 -29 0 c-22 0 -31 -6 -37 -22 -13
-44 -34 -58 -86 -58 l-48 0 0 125 0 125 70 0 c88 0 114 -12 140 -66 18 -40 24
-44 55 -44 l35 0 0 85 0 85 -260 0 c-242 0 -260 -1 -260 -18z"/>
<path d="M7370 2350 c0 -11 7 -20 15 -20 31 0 35 -39 35 -315 0 -276 -4 -315
-35 -315 -8 0 -15 -9 -15 -20 0 -19 7 -20 135 -20 122 0 135 2 135 18 0 9 -10
22 -22 27 -22 9 -23 16 -26 133 -3 121 -2 122 20 122 51 0 70 -23 137 -160
l66 -135 108 -3 c90 -2 107 0 107 12 0 9 -13 22 -29 31 -21 11 -42 41 -78 111
-32 65 -62 108 -89 133 l-42 36 46 25 c26 14 56 40 69 58 47 71 38 182 -19
241 -49 51 -105 61 -325 61 -186 0 -193 -1 -193 -20z m358 -67 c55 -41 60
-179 8 -231 -17 -18 -38 -25 -85 -29 l-61 -6 0 148 0 147 55 -4 c34 -3 66 -13
83 -25z"/>
<path d="M8070 2355 c0 -9 11 -20 24 -24 13 -5 26 -17 30 -26 8 -21 8 -543 -1
-573 -3 -13 -16 -28 -29 -33 -13 -4 -24 -15 -24 -24 0 -13 21 -15 140 -15 127
0 140 2 140 18 0 9 -10 22 -22 27 -12 6 -25 21 -29 35 -4 14 -7 138 -7 275 0
138 3 261 7 275 4 14 17 29 29 35 12 5 22 18 22 27 0 16 -13 18 -140 18 -119
0 -140 -2 -140 -15z"/>
<path d="M9140 2355 c0 -9 11 -20 24 -26 13 -6 27 -21 30 -33 3 -11 6 -138 6
-281 0 -143 -3 -270 -6 -281 -3 -12 -17 -27 -30 -33 -13 -6 -24 -17 -24 -26 0
-12 17 -15 100 -15 93 0 100 1 100 20 0 11 -6 20 -14 20 -7 0 -18 6 -24 13 -5
7 -12 113 -14 244 l-5 232 151 -264 151 -265 68 0 67 0 1 303 c1 166 4 313 8
327 4 14 17 29 29 35 12 5 22 18 22 27 0 16 -11 18 -100 18 -89 0 -100 -2
-100 -18 0 -9 10 -22 22 -27 32 -14 36 -42 36 -265 l1 -195 -30 60 c-17 33
-81 147 -141 253 l-110 192 -109 0 c-91 0 -109 -3 -109 -15z"/>
<path d="M11950 2352 c0 -9 10 -22 23 -27 l22 -10 0 -300 0 -300 -22 -10 c-13
-5 -23 -18 -23 -27 0 -16 13 -18 135 -18 122 0 135 2 135 18 0 9 -10 22 -22
27 l-23 10 0 300 0 300 23 10 c12 5 22 18 22 27 0 16 -13 18 -135 18 -122 0
-135 -2 -135 -18z"/>
<path d="M13020 2352 c0 -9 10 -22 23 -27 l22 -10 0 -300 0 -300 -22 -10 c-13
-5 -23 -18 -23 -27 0 -17 18 -18 250 -18 l250 0 0 53 c0 28 3 76 6 105 l7 52
-41 0 c-40 0 -40 0 -52 -49 -17 -73 -46 -95 -131 -99 l-69 -4 2 298 3 299 23
10 c12 5 22 18 22 27 0 16 -13 18 -135 18 -122 0 -135 -2 -135 -18z"/>
<path d="M9355 1466 c-5 -2 -22 -7 -37 -10 -34 -8 -94 -59 -116 -100 -12 -23
-17 -57 -17 -136 0 -94 3 -110 25 -150 36 -63 86 -90 173 -90 78 0 129 21 170
70 35 41 47 89 47 183 0 110 -32 176 -102 213 -26 14 -124 27 -143 20z m101
-84 c40 -58 45 -243 9 -312 -28 -55 -86 -66 -127 -25 -59 59 -63 278 -6 350
17 22 27 26 61 23 34 -2 45 -9 63 -36z"/>
<path d="M10677 1458 c-21 -5 -51 -23 -67 -40 -26 -25 -30 -37 -30 -83 0 -67
26 -101 112 -147 41 -22 65 -42 75 -64 31 -65 -9 -113 -82 -100 -28 6 -39 15
-52 42 -12 24 -23 34 -40 34 -21 0 -23 -4 -23 -54 0 -52 1 -54 31 -60 17 -3
63 -6 101 -6 80 0 128 18 158 60 26 37 27 115 1 153 -18 28 -82 77 -100 77
-21 0 -81 68 -81 92 0 37 31 60 76 56 31 -2 43 -9 59 -35 13 -20 28 -32 43
-33 20 0 22 5 22 49 0 28 -4 52 -8 55 -18 11 -160 14 -195 4z"/>
<path d="M4360 1450 c0 -5 9 -14 20 -20 19 -10 20 -21 20 -208 0 -188 -1 -198
-20 -210 -36 -22 -11 -32 81 -32 93 0 103 6 69 40 -16 16 -20 33 -20 90 l0 70
30 0 c28 0 33 -7 80 -100 l50 -100 70 0 c77 0 86 9 44 42 -14 11 -36 45 -49
74 -13 30 -36 65 -51 79 -15 14 -25 27 -23 28 2 2 19 13 36 26 59 40 69 143
19 190 -12 12 -38 26 -57 31 -44 13 -299 13 -299 0z m233 -39 c51 -20 61 -127
16 -163 -12 -10 -38 -18 -60 -18 l-39 0 0 95 0 95 29 0 c16 0 41 -4 54 -9z"/>
<path d="M4840 1450 c0 -6 7 -13 15 -16 13 -5 15 -38 15 -210 0 -173 -2 -206
-15 -210 -8 -4 -15 -12 -15 -20 0 -11 31 -14 169 -14 190 0 181 -4 181 81 0
44 -2 49 -22 49 -16 0 -29 -11 -43 -38 -19 -35 -22 -37 -77 -40 l-58 -3 0 91
0 90 35 0 c28 0 38 -5 47 -25 6 -14 19 -25 30 -25 16 0 18 9 18 70 0 78 -15
92 -52 45 -13 -16 -29 -25 -49 -25 l-29 0 0 85 0 85 44 0 c59 0 74 -7 92 -41
10 -20 22 -29 39 -29 24 0 25 3 25 55 l0 55 -175 0 c-114 0 -175 -4 -175 -10z"/>
<path d="M5250 1450 c0 -5 9 -14 20 -20 19 -10 20 -21 20 -205 0 -184 -1 -196
-20 -207 -44 -28 -23 -38 75 -38 98 0 119 10 75 38 -17 10 -20 23 -20 87 l0
75 48 0 c72 0 117 17 151 56 27 30 31 42 31 94 0 51 -4 62 -29 88 -17 16 -44
32 -62 36 -51 10 -289 7 -289 -4z m233 -41 c32 -17 37 -28 37 -85 0 -65 -20
-90 -77 -98 l-43 -6 0 100 0 100 31 0 c17 0 40 -5 52 -11z"/>
<path d="M5690 1446 c0 -8 6 -16 14 -19 11 -5 15 -41 18 -181 3 -195 9 -213
79 -248 49 -26 158 -24 210 3 61 31 69 59 69 249 0 148 2 162 20 177 11 10 20
21 20 25 0 5 -36 8 -80 8 -80 0 -98 -9 -60 -30 19 -10 20 -21 20 -176 0 -214
-15 -247 -106 -230 -54 11 -59 30 -59 224 0 155 2 174 18 183 36 21 15 29 -73
29 -70 0 -90 -3 -90 -14z"/>
<path d="M6180 1446 c0 -8 7 -16 15 -20 13 -4 15 -37 15 -205 0 -167 -2 -200
-15 -205 -8 -3 -15 -12 -15 -21 0 -13 19 -15 126 -15 69 0 145 5 169 11 117
30 142 174 38 228 -34 17 -35 19 -15 25 38 12 72 63 72 107 0 93 -35 109 -240
109 -121 0 -150 -3 -150 -14z m243 -37 c31 -17 37 -28 37 -75 0 -53 -24 -75
-90 -82 l-50 -5 0 80 c0 44 3 83 7 86 10 11 72 8 96 -4z m29 -229 c25 -30 23
-90 -3 -124 -18 -22 -28 -26 -75 -26 l-54 0 0 91 0 91 57 -4 c43 -4 61 -10 75
-28z"/>
<path d="M6640 1450 c0 -5 9 -14 20 -20 19 -10 20 -21 20 -205 0 -186 -1 -194
-21 -209 -42 -29 -12 -36 157 -36 l164 0 2 55 c1 30 2 63 2 73 1 12 -7 17 -23
17 -19 0 -26 -7 -32 -29 -13 -49 -37 -66 -91 -66 l-48 0 0 190 c0 178 1 191
20 207 11 10 20 21 20 25 0 5 -43 8 -95 8 -54 0 -95 -4 -95 -10z"/>
<path d="M7040 1446 c0 -8 7 -16 15 -20 13 -4 15 -37 15 -206 0 -169 -2 -202
-15 -206 -8 -4 -15 -12 -15 -20 0 -11 20 -14 90 -14 70 0 90 3 90 14 0 8 -7
16 -15 20 -13 4 -15 37 -15 204 0 165 3 202 15 212 29 24 14 30 -75 30 -70 0
-90 -3 -90 -14z"/>
<path d="M7290 1446 c0 -8 7 -16 15 -20 13 -4 15 -37 15 -206 0 -169 -2 -202
-15 -206 -8 -4 -15 -12 -15 -20 0 -11 20 -14 90 -14 70 0 90 3 90 14 0 8 -7
16 -15 20 -12 4 -15 25 -15 101 0 52 4 95 8 95 13 0 44 -38 92 -113 32 -51 40
-71 32 -79 -30 -30 -13 -38 83 -38 99 0 119 10 74 38 -17 11 -169 232 -169
246 0 12 133 152 156 164 45 24 26 32 -73 32 l-96 0 22 -23 c26 -29 22 -45
-28 -107 -88 -110 -101 -109 -101 4 0 62 4 87 15 96 29 24 14 30 -75 30 -70 0
-90 -3 -90 -14z"/>
<path d="M7930 1450 c0 -5 9 -14 20 -20 19 -10 20 -21 20 -205 0 -186 -1 -194
-21 -209 -37 -25 -13 -36 82 -36 92 0 112 11 69 38 -19 11 -20 23 -20 202 0
178 1 191 20 207 11 10 20 21 20 25 0 5 -43 8 -95 8 -54 0 -95 -4 -95 -10z"/>
<path d="M8180 1450 c0 -5 9 -14 20 -20 19 -10 20 -21 20 -205 0 -186 -1 -194
-21 -209 -33 -22 -14 -36 51 -36 65 0 84 14 51 36 -20 14 -21 24 -21 167 l0
151 101 -177 100 -177 45 0 44 0 0 215 c0 203 1 216 20 232 11 10 20 21 20 25
0 5 -31 8 -70 8 -72 0 -84 -8 -50 -31 17 -13 19 -28 22 -157 2 -78 2 -142 1
-142 -2 0 -12 19 -24 43 -12 23 -53 97 -91 165 l-70 122 -74 0 c-41 0 -74 -4
-74 -10z"/>
<path d="M8670 1453 c0 -5 9 -16 20 -26 19 -16 20 -29 20 -202 0 -172 -1 -186
-20 -205 -39 -39 -27 -43 113 -38 177 6 231 30 280 123 16 31 21 59 21 125 1
105 -24 157 -94 198 -42 25 -54 27 -192 30 -82 2 -148 0 -148 -5z m259 -61
c39 -28 55 -69 59 -147 8 -138 -37 -215 -122 -215 l-46 0 0 196 0 197 42 -6
c23 -3 53 -14 67 -25z"/>
<path d="M9670 1452 c0 -4 9 -15 20 -25 19 -16 20 -29 20 -207 0 -179 -1 -191
-20 -202 -39 -25 -24 -38 44 -38 71 0 89 12 56 38 -20 16 -21 25 -18 161 l3
144 97 -169 97 -169 45 -3 46 -3 0 216 c0 203 1 216 20 232 11 10 20 21 20 25
0 5 -31 8 -70 8 -70 0 -87 -10 -51 -30 18 -9 20 -23 23 -156 2 -80 0 -140 -5
-132 -4 7 -46 82 -94 166 l-86 152 -74 0 c-40 0 -73 -3 -73 -8z"/>
<path d="M10160 1450 c0 -5 8 -13 18 -19 15 -9 17 -29 17 -206 0 -176 -2 -198
-17 -209 -43 -32 -21 -37 155 -34 l172 3 3 63 c3 59 2 62 -20 62 -16 0 -29
-11 -43 -38 -19 -35 -22 -37 -77 -40 l-58 -3 0 91 0 90 35 0 c28 0 38 -5 47
-25 6 -14 19 -25 30 -25 16 0 18 9 18 70 0 63 -2 70 -20 70 -11 0 -20 -4 -20
-9 0 -19 -32 -41 -61 -41 l-29 0 0 85 0 85 44 0 c59 0 74 -7 92 -41 10 -20 22
-29 39 -29 24 0 25 3 25 55 l0 55 -175 0 c-104 0 -175 -4 -175 -10z"/>
<path d="M10940 1452 c0 -4 9 -15 20 -25 19 -16 20 -29 20 -202 0 -172 -1
-186 -20 -205 -11 -11 -20 -24 -20 -30 0 -12 177 -14 184 -1 3 4 -3 16 -14 26
-19 17 -20 32 -20 211 0 183 1 194 20 204 40 22 19 30 -75 30 -52 0 -95 -3
-95 -8z"/>
<path d="M11280 1258 c-48 -129 -85 -214 -102 -234 -15 -17 -25 -34 -21 -38
10 -10 141 -7 148 3 3 6 -4 15 -15 21 -22 12 -26 41 -9 89 11 31 11 31 85 31
l73 0 10 -37 c16 -56 13 -74 -9 -80 -12 -3 -19 -11 -17 -17 2 -7 40 -12 100
-14 102 -3 116 4 77 36 -15 12 -38 74 -76 202 -30 102 -57 197 -60 213 -6 25
-10 27 -58 27 l-52 0 -74 -202z m118 22 c11 -41 24 -83 27 -92 6 -16 0 -18
-54 -18 -34 0 -61 3 -61 7 0 11 63 184 65 181 2 -2 12 -37 23 -78z"/>
</g>
</svg>
